<mxfile host="drawio-plugin" modified="2021-10-31T15:18:26.875Z" agent="5.0 (Windows NT 6.2; Win64; x64) AppleWebKit/537.36 (KHTML, like Gecko) Chrome/89.0.4389.114 Safari/537.36" etag="lXkuoPpsfV2Vso0bie3i" version="14.7.4" type="embed"><diagram id="C5RBs43oDa-KdzZeNtuy" name="Page-1"><mxGraphModel dx="861" dy="743" grid="0" gridSize="10" guides="1" tooltips="1" connect="1" arrows="1" fold="1" page="1" pageScale="1" pageWidth="2000" pageHeight="2000" background="#F4F1DE" math="0" shadow="0"><root><mxCell id="WIyWlLk6GJQsqaUBKTNV-0"/><mxCell id="WIyWlLk6GJQsqaUBKTNV-1" parent="WIyWlLk6GJQsqaUBKTNV-0"/><mxCell id="pBIvRkX0d40L7lg2x5wS-4" value="UserEntity" style="swimlane;fontStyle=0;childLayout=stackLayout;horizontal=1;startSize=26;fillColor=none;horizontalStack=0;resizeParent=1;resizeParentMax=0;resizeLast=0;collapsible=1;marginBottom=0;strokeColor=#E07A5F;fontColor=#393C56;" parent="WIyWlLk6GJQsqaUBKTNV-1" vertex="1"><mxGeometry x="70" y="230" width="140" height="104" as="geometry"/></mxCell><mxCell id="pBIvRkX0d40L7lg2x5wS-5" value="- id: long                    " style="text;strokeColor=none;fillColor=none;align=left;verticalAlign=top;spacingLeft=4;spacingRight=4;overflow=hidden;rotatable=0;points=[[0,0.5],[1,0.5]];portConstraint=eastwest;fontColor=#393C56;" parent="pBIvRkX0d40L7lg2x5wS-4" vertex="1"><mxGeometry y="26" width="140" height="26" as="geometry"/></mxCell><mxCell id="pBIvRkX0d40L7lg2x5wS-6" value="- lastname: String " style="text;strokeColor=none;fillColor=none;align=left;verticalAlign=top;spacingLeft=4;spacingRight=4;overflow=hidden;rotatable=0;points=[[0,0.5],[1,0.5]];portConstraint=eastwest;fontColor=#393C56;" parent="pBIvRkX0d40L7lg2x5wS-4" vertex="1"><mxGeometry y="52" width="140" height="26" as="geometry"/></mxCell><mxCell id="pBIvRkX0d40L7lg2x5wS-9" value="- name: String " style="text;strokeColor=none;fillColor=none;align=left;verticalAlign=top;spacingLeft=4;spacingRight=4;overflow=hidden;rotatable=0;points=[[0,0.5],[1,0.5]];portConstraint=eastwest;fontColor=#393C56;" parent="pBIvRkX0d40L7lg2x5wS-4" vertex="1"><mxGeometry y="78" width="140" height="26" as="geometry"/></mxCell><mxCell id="pBIvRkX0d40L7lg2x5wS-10" value="MasterAccount" style="swimlane;fontStyle=0;childLayout=stackLayout;horizontal=1;startSize=26;fillColor=none;horizontalStack=0;resizeParent=1;resizeParentMax=0;resizeLast=0;collapsible=1;marginBottom=0;strokeColor=#E07A5F;fontColor=#393C56;" parent="WIyWlLk6GJQsqaUBKTNV-1" vertex="1"><mxGeometry x="430" y="240" width="140" height="104" as="geometry"/></mxCell><mxCell id="pBIvRkX0d40L7lg2x5wS-11" value="- id: long " style="text;strokeColor=none;fillColor=none;align=left;verticalAlign=top;spacingLeft=4;spacingRight=4;overflow=hidden;rotatable=0;points=[[0,0.5],[1,0.5]];portConstraint=eastwest;fontColor=#393C56;" parent="pBIvRkX0d40L7lg2x5wS-10" vertex="1"><mxGeometry y="26" width="140" height="26" as="geometry"/></mxCell><mxCell id="pBIvRkX0d40L7lg2x5wS-12" value="- name: String" style="text;strokeColor=none;fillColor=none;align=left;verticalAlign=top;spacingLeft=4;spacingRight=4;overflow=hidden;rotatable=0;points=[[0,0.5],[1,0.5]];portConstraint=eastwest;fontColor=#393C56;" parent="pBIvRkX0d40L7lg2x5wS-10" vertex="1"><mxGeometry y="52" width="140" height="26" as="geometry"/></mxCell><mxCell id="pBIvRkX0d40L7lg2x5wS-13" value="- password: String" style="text;strokeColor=none;fillColor=none;align=left;verticalAlign=top;spacingLeft=4;spacingRight=4;overflow=hidden;rotatable=0;points=[[0,0.5],[1,0.5]];portConstraint=eastwest;fontColor=#393C56;" parent="pBIvRkX0d40L7lg2x5wS-10" vertex="1"><mxGeometry y="78" width="140" height="26" as="geometry"/></mxCell><mxCell id="pBIvRkX0d40L7lg2x5wS-24" value="" style="endArrow=none;html=1;edgeStyle=orthogonalEdgeStyle;rounded=0;exitX=1;exitY=0.5;exitDx=0;exitDy=0;entryX=0;entryY=0.5;entryDx=0;entryDy=0;labelBackgroundColor=#F4F1DE;strokeColor=#E07A5F;fontColor=#393C56;" parent="WIyWlLk6GJQsqaUBKTNV-1" source="pBIvRkX0d40L7lg2x5wS-5" target="pBIvRkX0d40L7lg2x5wS-11" edge="1"><mxGeometry relative="1" as="geometry"><mxPoint x="220" y="270" as="sourcePoint"/><mxPoint x="380" y="270" as="targetPoint"/><Array as="points"><mxPoint x="210" y="270"/></Array></mxGeometry></mxCell><mxCell id="pBIvRkX0d40L7lg2x5wS-25" value="1" style="edgeLabel;resizable=0;html=1;align=left;verticalAlign=bottom;labelBackgroundColor=#F4F1DE;fontColor=#393C56;" parent="pBIvRkX0d40L7lg2x5wS-24" connectable="0" vertex="1"><mxGeometry x="-1" relative="1" as="geometry"/></mxCell><mxCell id="pBIvRkX0d40L7lg2x5wS-26" value="1" style="edgeLabel;resizable=0;html=1;align=right;verticalAlign=bottom;labelBackgroundColor=#F4F1DE;fontColor=#393C56;" parent="pBIvRkX0d40L7lg2x5wS-24" connectable="0" vertex="1"><mxGeometry x="1" relative="1" as="geometry"><mxPoint x="-10" y="-19" as="offset"/></mxGeometry></mxCell><mxCell id="pBIvRkX0d40L7lg2x5wS-31" value="EmailAccount" style="swimlane;fontStyle=0;childLayout=stackLayout;horizontal=1;startSize=26;fillColor=none;horizontalStack=0;resizeParent=1;resizeParentMax=0;resizeLast=0;collapsible=1;marginBottom=0;strokeColor=#E07A5F;fontColor=#393C56;" parent="WIyWlLk6GJQsqaUBKTNV-1" vertex="1"><mxGeometry x="830" y="201" width="140" height="182" as="geometry"/></mxCell><mxCell id="pBIvRkX0d40L7lg2x5wS-32" value="- id: long" style="text;strokeColor=none;fillColor=none;align=left;verticalAlign=top;spacingLeft=4;spacingRight=4;overflow=hidden;rotatable=0;points=[[0,0.5],[1,0.5]];portConstraint=eastwest;fontColor=#393C56;" parent="pBIvRkX0d40L7lg2x5wS-31" vertex="1"><mxGeometry y="26" width="140" height="26" as="geometry"/></mxCell><mxCell id="pBIvRkX0d40L7lg2x5wS-33" value="- emailAddress: String" style="text;strokeColor=none;fillColor=none;align=left;verticalAlign=top;spacingLeft=4;spacingRight=4;overflow=hidden;rotatable=0;points=[[0,0.5],[1,0.5]];portConstraint=eastwest;fontColor=#393C56;" parent="pBIvRkX0d40L7lg2x5wS-31" vertex="1"><mxGeometry y="52" width="140" height="26" as="geometry"/></mxCell><mxCell id="pBIvRkX0d40L7lg2x5wS-66" value="- emailPw: String" style="text;strokeColor=none;fillColor=none;align=left;verticalAlign=top;spacingLeft=4;spacingRight=4;overflow=hidden;rotatable=0;points=[[0,0.5],[1,0.5]];portConstraint=eastwest;fontColor=#393C56;" parent="pBIvRkX0d40L7lg2x5wS-31" vertex="1"><mxGeometry y="78" width="140" height="26" as="geometry"/></mxCell><mxCell id="pBIvRkX0d40L7lg2x5wS-68" value="- domain: String" style="text;strokeColor=none;fillColor=none;align=left;verticalAlign=top;spacingLeft=4;spacingRight=4;overflow=hidden;rotatable=0;points=[[0,0.5],[1,0.5]];portConstraint=eastwest;fontColor=#393C56;" parent="pBIvRkX0d40L7lg2x5wS-31" vertex="1"><mxGeometry y="104" width="140" height="26" as="geometry"/></mxCell><mxCell id="pBIvRkX0d40L7lg2x5wS-67" value="- port: int" style="text;strokeColor=none;fillColor=none;align=left;verticalAlign=top;spacingLeft=4;spacingRight=4;overflow=hidden;rotatable=0;points=[[0,0.5],[1,0.5]];portConstraint=eastwest;fontColor=#393C56;" parent="pBIvRkX0d40L7lg2x5wS-31" vertex="1"><mxGeometry y="130" width="140" height="26" as="geometry"/></mxCell><mxCell id="pBIvRkX0d40L7lg2x5wS-34" value="- isVerified: boolean" style="text;strokeColor=none;fillColor=none;align=left;verticalAlign=top;spacingLeft=4;spacingRight=4;overflow=hidden;rotatable=0;points=[[0,0.5],[1,0.5]];portConstraint=eastwest;fontColor=#393C56;" parent="pBIvRkX0d40L7lg2x5wS-31" vertex="1"><mxGeometry y="156" width="140" height="26" as="geometry"/></mxCell><mxCell id="pBIvRkX0d40L7lg2x5wS-57" value="" style="endArrow=none;html=1;edgeStyle=orthogonalEdgeStyle;rounded=0;entryX=0;entryY=0.5;entryDx=0;entryDy=0;exitX=1;exitY=0.5;exitDx=0;exitDy=0;labelBackgroundColor=#F4F1DE;strokeColor=#E07A5F;fontColor=#393C56;" parent="WIyWlLk6GJQsqaUBKTNV-1" source="pBIvRkX0d40L7lg2x5wS-72" target="pBIvRkX0d40L7lg2x5wS-32" edge="1"><mxGeometry relative="1" as="geometry"><mxPoint x="630" y="269" as="sourcePoint"/><mxPoint x="750" y="270" as="targetPoint"/></mxGeometry></mxCell><mxCell id="pBIvRkX0d40L7lg2x5wS-58" value="1" style="edgeLabel;resizable=0;html=1;align=left;verticalAlign=bottom;labelBackgroundColor=#F4F1DE;fontColor=#393C56;" parent="pBIvRkX0d40L7lg2x5wS-57" connectable="0" vertex="1"><mxGeometry x="-1" relative="1" as="geometry"><mxPoint x="10" as="offset"/></mxGeometry></mxCell><mxCell id="pBIvRkX0d40L7lg2x5wS-59" value="1..*" style="edgeLabel;resizable=0;html=1;align=right;verticalAlign=bottom;labelBackgroundColor=#F4F1DE;fontColor=#393C56;" parent="pBIvRkX0d40L7lg2x5wS-57" connectable="0" vertex="1"><mxGeometry x="1" relative="1" as="geometry"><mxPoint x="-10" as="offset"/></mxGeometry></mxCell><mxCell id="pBIvRkX0d40L7lg2x5wS-72" value="" style="rhombus;whiteSpace=wrap;html=1;fillColor=#F2CC8F;strokeColor=#E07A5F;fontColor=#393C56;" parent="WIyWlLk6GJQsqaUBKTNV-1" vertex="1"><mxGeometry x="570" y="274" width="20" height="10" as="geometry"/></mxCell><mxCell id="pBIvRkX0d40L7lg2x5wS-76" value="Calendar" style="swimlane;fontStyle=0;childLayout=stackLayout;horizontal=1;startSize=26;fillColor=none;horizontalStack=0;resizeParent=1;resizeParentMax=0;resizeLast=0;collapsible=1;marginBottom=0;strokeColor=#E07A5F;fontColor=#393C56;" parent="WIyWlLk6GJQsqaUBKTNV-1" vertex="1"><mxGeometry x="540" y="470.0000000000002" width="140" height="78" as="geometry"/></mxCell><mxCell id="pBIvRkX0d40L7lg2x5wS-77" value="- id: long" style="text;strokeColor=none;fillColor=none;align=left;verticalAlign=top;spacingLeft=4;spacingRight=4;overflow=hidden;rotatable=0;points=[[0,0.5],[1,0.5]];portConstraint=eastwest;fontColor=#393C56;" parent="pBIvRkX0d40L7lg2x5wS-76" vertex="1"><mxGeometry y="26" width="140" height="26" as="geometry"/></mxCell><mxCell id="pBIvRkX0d40L7lg2x5wS-78" value="- name: String" style="text;strokeColor=none;fillColor=none;align=left;verticalAlign=top;spacingLeft=4;spacingRight=4;overflow=hidden;rotatable=0;points=[[0,0.5],[1,0.5]];portConstraint=eastwest;fontColor=#393C56;" parent="pBIvRkX0d40L7lg2x5wS-76" vertex="1"><mxGeometry y="52" width="140" height="26" as="geometry"/></mxCell><mxCell id="pBIvRkX0d40L7lg2x5wS-80" value="Appointment" style="swimlane;fontStyle=0;childLayout=stackLayout;horizontal=1;startSize=26;fillColor=none;horizontalStack=0;resizeParent=1;resizeParentMax=0;resizeLast=0;collapsible=1;marginBottom=0;strokeColor=#E07A5F;fontColor=#393C56;" parent="WIyWlLk6GJQsqaUBKTNV-1" vertex="1"><mxGeometry x="890" y="450" width="220" height="234" as="geometry"/></mxCell><mxCell id="pBIvRkX0d40L7lg2x5wS-81" value="- id: long" style="text;strokeColor=none;fillColor=none;align=left;verticalAlign=top;spacingLeft=4;spacingRight=4;overflow=hidden;rotatable=0;points=[[0,0.5],[1,0.5]];portConstraint=eastwest;fontColor=#393C56;" parent="pBIvRkX0d40L7lg2x5wS-80" vertex="1"><mxGeometry y="26" width="220" height="26" as="geometry"/></mxCell><mxCell id="pBIvRkX0d40L7lg2x5wS-89" value="- name: String" style="text;strokeColor=none;fillColor=none;align=left;verticalAlign=top;spacingLeft=4;spacingRight=4;overflow=hidden;rotatable=0;points=[[0,0.5],[1,0.5]];portConstraint=eastwest;fontColor=#393C56;" parent="pBIvRkX0d40L7lg2x5wS-80" vertex="1"><mxGeometry y="52" width="220" height="26" as="geometry"/></mxCell><mxCell id="pBIvRkX0d40L7lg2x5wS-82" value="- date: Date" style="text;strokeColor=none;fillColor=none;align=left;verticalAlign=top;spacingLeft=4;spacingRight=4;overflow=hidden;rotatable=0;points=[[0,0.5],[1,0.5]];portConstraint=eastwest;fontColor=#393C56;" parent="pBIvRkX0d40L7lg2x5wS-80" vertex="1"><mxGeometry y="78" width="220" height="26" as="geometry"/></mxCell><mxCell id="pBIvRkX0d40L7lg2x5wS-88" value="- start: Timestamp " style="text;strokeColor=none;fillColor=none;align=left;verticalAlign=top;spacingLeft=4;spacingRight=4;overflow=hidden;rotatable=0;points=[[0,0.5],[1,0.5]];portConstraint=eastwest;fontColor=#393C56;" parent="pBIvRkX0d40L7lg2x5wS-80" vertex="1"><mxGeometry y="104" width="220" height="26" as="geometry"/></mxCell><mxCell id="pBIvRkX0d40L7lg2x5wS-83" value="- end: Timestamp" style="text;strokeColor=none;fillColor=none;align=left;verticalAlign=top;spacingLeft=4;spacingRight=4;overflow=hidden;rotatable=0;points=[[0,0.5],[1,0.5]];portConstraint=eastwest;fontColor=#393C56;" parent="pBIvRkX0d40L7lg2x5wS-80" vertex="1"><mxGeometry y="130" width="220" height="26" as="geometry"/></mxCell><mxCell id="pBIvRkX0d40L7lg2x5wS-91" value="- description: String" style="text;strokeColor=none;fillColor=none;align=left;verticalAlign=top;spacingLeft=4;spacingRight=4;overflow=hidden;rotatable=0;points=[[0,0.5],[1,0.5]];portConstraint=eastwest;fontColor=#393C56;" parent="pBIvRkX0d40L7lg2x5wS-80" vertex="1"><mxGeometry y="156" width="220" height="26" as="geometry"/></mxCell><mxCell id="pBIvRkX0d40L7lg2x5wS-92" value="- isFullTime: boolean" style="text;strokeColor=none;fillColor=none;align=left;verticalAlign=top;spacingLeft=4;spacingRight=4;overflow=hidden;rotatable=0;points=[[0,0.5],[1,0.5]];portConstraint=eastwest;fontColor=#393C56;" parent="pBIvRkX0d40L7lg2x5wS-80" vertex="1"><mxGeometry y="182" width="220" height="26" as="geometry"/></mxCell><mxCell id="pBIvRkX0d40L7lg2x5wS-90" value="- paricipants:Collection&lt;String &gt;" style="text;strokeColor=none;fillColor=none;align=left;verticalAlign=top;spacingLeft=4;spacingRight=4;overflow=hidden;rotatable=0;points=[[0,0.5],[1,0.5]];portConstraint=eastwest;fontColor=#393C56;" parent="pBIvRkX0d40L7lg2x5wS-80" vertex="1"><mxGeometry y="208" width="220" height="26" as="geometry"/></mxCell><mxCell id="pBIvRkX0d40L7lg2x5wS-84" value="" style="endArrow=none;html=1;edgeStyle=orthogonalEdgeStyle;rounded=0;exitX=1;exitY=0.5;exitDx=0;exitDy=0;entryX=0;entryY=0.25;entryDx=0;entryDy=0;labelBackgroundColor=#F4F1DE;strokeColor=#E07A5F;fontColor=#393C56;" parent="WIyWlLk6GJQsqaUBKTNV-1" source="pBIvRkX0d40L7lg2x5wS-87" target="pBIvRkX0d40L7lg2x5wS-80" edge="1"><mxGeometry relative="1" as="geometry"><mxPoint x="710" y="494.5" as="sourcePoint"/><mxPoint x="910" y="494.5" as="targetPoint"/><Array as="points"><mxPoint x="890" y="495"/></Array></mxGeometry></mxCell><mxCell id="pBIvRkX0d40L7lg2x5wS-85" value="1" style="edgeLabel;resizable=0;html=1;align=left;verticalAlign=bottom;labelBackgroundColor=#F4F1DE;fontColor=#393C56;" parent="pBIvRkX0d40L7lg2x5wS-84" connectable="0" vertex="1"><mxGeometry x="-1" relative="1" as="geometry"><mxPoint x="10" as="offset"/></mxGeometry></mxCell><mxCell id="pBIvRkX0d40L7lg2x5wS-86" value="0..*" style="edgeLabel;resizable=0;html=1;align=right;verticalAlign=bottom;labelBackgroundColor=#F4F1DE;fontColor=#393C56;" parent="pBIvRkX0d40L7lg2x5wS-84" connectable="0" vertex="1"><mxGeometry x="1" relative="1" as="geometry"><mxPoint x="-11" y="-19" as="offset"/></mxGeometry></mxCell><mxCell id="pBIvRkX0d40L7lg2x5wS-87" value="" style="rhombus;whiteSpace=wrap;html=1;fillColor=#F2CC8F;strokeColor=#E07A5F;fontColor=#393C56;" parent="WIyWlLk6GJQsqaUBKTNV-1" vertex="1"><mxGeometry x="680" y="490" width="20" height="10" as="geometry"/></mxCell><mxCell id="pBIvRkX0d40L7lg2x5wS-93" value="" style="endArrow=none;html=1;edgeStyle=orthogonalEdgeStyle;rounded=0;exitX=1;exitY=0.5;exitDx=0;exitDy=0;entryX=0.75;entryY=0;entryDx=0;entryDy=0;labelBackgroundColor=#F4F1DE;strokeColor=#E07A5F;fontColor=#393C56;" parent="WIyWlLk6GJQsqaUBKTNV-1" edge="1"><mxGeometry relative="1" as="geometry"><mxPoint x="569" y="331" as="sourcePoint"/><mxPoint x="644" y="470.0000000000002" as="targetPoint"/></mxGeometry></mxCell><mxCell id="pBIvRkX0d40L7lg2x5wS-94" value="1" style="edgeLabel;resizable=0;html=1;align=left;verticalAlign=bottom;labelBackgroundColor=#F4F1DE;fontColor=#393C56;" parent="pBIvRkX0d40L7lg2x5wS-93" connectable="0" vertex="1"><mxGeometry x="-1" relative="1" as="geometry"><mxPoint x="10" as="offset"/></mxGeometry></mxCell><mxCell id="pBIvRkX0d40L7lg2x5wS-95" value="1..*" style="edgeLabel;resizable=0;html=1;align=right;verticalAlign=bottom;labelBackgroundColor=#F4F1DE;fontColor=#393C56;" parent="pBIvRkX0d40L7lg2x5wS-93" connectable="0" vertex="1"><mxGeometry x="1" relative="1" as="geometry"><mxPoint x="-10" y="-10" as="offset"/></mxGeometry></mxCell><mxCell id="pBIvRkX0d40L7lg2x5wS-96" value="" style="endArrow=none;html=1;edgeStyle=orthogonalEdgeStyle;rounded=0;exitX=0;exitY=0.5;exitDx=0;exitDy=0;entryX=0.907;entryY=-0.01;entryDx=0;entryDy=0;entryPerimeter=0;labelBackgroundColor=#F4F1DE;strokeColor=#E07A5F;fontColor=#393C56;" parent="WIyWlLk6GJQsqaUBKTNV-1" source="pBIvRkX0d40L7lg2x5wS-67" target="pBIvRkX0d40L7lg2x5wS-76" edge="1"><mxGeometry relative="1" as="geometry"><mxPoint x="810" y="440" as="sourcePoint"/><mxPoint x="720" y="430" as="targetPoint"/><Array as="points"><mxPoint x="667" y="334"/></Array></mxGeometry></mxCell><mxCell id="pBIvRkX0d40L7lg2x5wS-97" value="1" style="edgeLabel;resizable=0;html=1;align=left;verticalAlign=bottom;labelBackgroundColor=#F4F1DE;fontColor=#393C56;" parent="pBIvRkX0d40L7lg2x5wS-96" connectable="0" vertex="1"><mxGeometry x="-1" relative="1" as="geometry"><mxPoint x="-20" y="-24" as="offset"/></mxGeometry></mxCell><mxCell id="pBIvRkX0d40L7lg2x5wS-98" value="1..*" style="edgeLabel;resizable=0;html=1;align=right;verticalAlign=bottom;labelBackgroundColor=#F4F1DE;fontColor=#393C56;" parent="pBIvRkX0d40L7lg2x5wS-96" connectable="0" vertex="1"><mxGeometry x="1" relative="1" as="geometry"><mxPoint x="23" y="-9" as="offset"/></mxGeometry></mxCell><mxCell id="qBlVCoQa4VQj7nnMZvMF-0" value="Address" style="swimlane;fontStyle=0;childLayout=stackLayout;horizontal=1;startSize=26;fillColor=none;horizontalStack=0;resizeParent=1;resizeParentMax=0;resizeLast=0;collapsible=1;marginBottom=0;strokeColor=#E07A5F;fontColor=#393C56;" parent="WIyWlLk6GJQsqaUBKTNV-1" vertex="1"><mxGeometry x="180" y="470.0000000000002" width="140" height="130" as="geometry"/></mxCell><mxCell id="qBlVCoQa4VQj7nnMZvMF-5" value="- zip: int" style="text;strokeColor=none;fillColor=none;align=left;verticalAlign=top;spacingLeft=4;spacingRight=4;overflow=hidden;rotatable=0;points=[[0,0.5],[1,0.5]];portConstraint=eastwest;fontColor=#393C56;" parent="qBlVCoQa4VQj7nnMZvMF-0" vertex="1"><mxGeometry y="26" width="140" height="26" as="geometry"/></mxCell><mxCell id="qBlVCoQa4VQj7nnMZvMF-2" value="- country: String" style="text;strokeColor=none;fillColor=none;align=left;verticalAlign=top;spacingLeft=4;spacingRight=4;overflow=hidden;rotatable=0;points=[[0,0.5],[1,0.5]];portConstraint=eastwest;fontColor=#393C56;" parent="qBlVCoQa4VQj7nnMZvMF-0" vertex="1"><mxGeometry y="52" width="140" height="26" as="geometry"/></mxCell><mxCell id="qBlVCoQa4VQj7nnMZvMF-6" value="- street: String" style="text;strokeColor=none;fillColor=none;align=left;verticalAlign=top;spacingLeft=4;spacingRight=4;overflow=hidden;rotatable=0;points=[[0,0.5],[1,0.5]];portConstraint=eastwest;fontColor=#393C56;" parent="qBlVCoQa4VQj7nnMZvMF-0" vertex="1"><mxGeometry y="78" width="140" height="26" as="geometry"/></mxCell><mxCell id="qBlVCoQa4VQj7nnMZvMF-4" value="- town: String" style="text;strokeColor=none;fillColor=none;align=left;verticalAlign=top;spacingLeft=4;spacingRight=4;overflow=hidden;rotatable=0;points=[[0,0.5],[1,0.5]];portConstraint=eastwest;fontColor=#393C56;" parent="qBlVCoQa4VQj7nnMZvMF-0" vertex="1"><mxGeometry y="104" width="140" height="26" as="geometry"/></mxCell><mxCell id="qBlVCoQa4VQj7nnMZvMF-7" value="" style="endArrow=none;html=1;edgeStyle=orthogonalEdgeStyle;rounded=0;exitX=0.457;exitY=1;exitDx=0;exitDy=0;exitPerimeter=0;entryX=0;entryY=0.5;entryDx=0;entryDy=0;labelBackgroundColor=#F4F1DE;strokeColor=#E07A5F;fontColor=#393C56;" parent="WIyWlLk6GJQsqaUBKTNV-1" source="pBIvRkX0d40L7lg2x5wS-9" target="qBlVCoQa4VQj7nnMZvMF-5" edge="1"><mxGeometry relative="1" as="geometry"><mxPoint x="70" y="508.5" as="sourcePoint"/><mxPoint x="230" y="508.5" as="targetPoint"/></mxGeometry></mxCell><mxCell id="qBlVCoQa4VQj7nnMZvMF-8" value="1" style="edgeLabel;resizable=0;html=1;align=left;verticalAlign=bottom;labelBackgroundColor=#F4F1DE;fontColor=#393C56;" parent="qBlVCoQa4VQj7nnMZvMF-7" connectable="0" vertex="1"><mxGeometry x="-1" relative="1" as="geometry"><mxPoint x="10" y="26" as="offset"/></mxGeometry></mxCell><mxCell id="qBlVCoQa4VQj7nnMZvMF-9" value="1" style="edgeLabel;resizable=0;html=1;align=right;verticalAlign=bottom;labelBackgroundColor=#F4F1DE;fontColor=#393C56;" parent="qBlVCoQa4VQj7nnMZvMF-7" connectable="0" vertex="1"><mxGeometry x="1" relative="1" as="geometry"><mxPoint x="-10" as="offset"/></mxGeometry></mxCell><mxCell id="qBlVCoQa4VQj7nnMZvMF-10" value="&lt;&lt;abstract&gt;&gt;&#10;email" style="swimlane;fontStyle=0;childLayout=stackLayout;horizontal=1;startSize=26;fillColor=none;horizontalStack=0;resizeParent=1;resizeParentMax=0;resizeLast=0;collapsible=1;marginBottom=0;strokeColor=#E07A5F;fontColor=#393C56;" parent="WIyWlLk6GJQsqaUBKTNV-1" vertex="1"><mxGeometry x="1600" y="152" width="190" height="156" as="geometry"/></mxCell><mxCell id="qBlVCoQa4VQj7nnMZvMF-11" value="- id: long" style="text;strokeColor=none;fillColor=none;align=left;verticalAlign=top;spacingLeft=4;spacingRight=4;overflow=hidden;rotatable=0;points=[[0,0.5],[1,0.5]];portConstraint=eastwest;fontColor=#393C56;" parent="qBlVCoQa4VQj7nnMZvMF-10" vertex="1"><mxGeometry y="26" width="190" height="26" as="geometry"/></mxCell><mxCell id="qBlVCoQa4VQj7nnMZvMF-13" value="- source: String&#10;" style="text;strokeColor=none;fillColor=none;align=left;verticalAlign=top;spacingLeft=4;spacingRight=4;overflow=hidden;rotatable=0;points=[[0,0.5],[1,0.5]];portConstraint=eastwest;fontColor=#393C56;" parent="qBlVCoQa4VQj7nnMZvMF-10" vertex="1"><mxGeometry y="52" width="190" height="26" as="geometry"/></mxCell><mxCell id="qBlVCoQa4VQj7nnMZvMF-14" value="- content: String" style="text;strokeColor=none;fillColor=none;align=left;verticalAlign=top;spacingLeft=4;spacingRight=4;overflow=hidden;rotatable=0;points=[[0,0.5],[1,0.5]];portConstraint=eastwest;fontColor=#393C56;" parent="qBlVCoQa4VQj7nnMZvMF-10" vertex="1"><mxGeometry y="78" width="190" height="26" as="geometry"/></mxCell><mxCell id="qBlVCoQa4VQj7nnMZvMF-15" value="- subject: String&#10;" style="text;strokeColor=none;fillColor=none;align=left;verticalAlign=top;spacingLeft=4;spacingRight=4;overflow=hidden;rotatable=0;points=[[0,0.5],[1,0.5]];portConstraint=eastwest;fontColor=#393C56;" parent="qBlVCoQa4VQj7nnMZvMF-10" vertex="1"><mxGeometry y="104" width="190" height="26" as="geometry"/></mxCell><mxCell id="qBlVCoQa4VQj7nnMZvMF-16" value="- reciver: Collection&lt;String&gt;&#10;" style="text;strokeColor=none;fillColor=none;align=left;verticalAlign=top;spacingLeft=4;spacingRight=4;overflow=hidden;rotatable=0;points=[[0,0.5],[1,0.5]];portConstraint=eastwest;fontColor=#393C56;" parent="qBlVCoQa4VQj7nnMZvMF-10" vertex="1"><mxGeometry y="130" width="190" height="26" as="geometry"/></mxCell><mxCell id="qBlVCoQa4VQj7nnMZvMF-17" value="sentEmail" style="swimlane;fontStyle=0;childLayout=stackLayout;horizontal=1;startSize=26;fillColor=none;horizontalStack=0;resizeParent=1;resizeParentMax=0;resizeLast=0;collapsible=1;marginBottom=0;strokeColor=#E07A5F;fontColor=#393C56;" parent="WIyWlLk6GJQsqaUBKTNV-1" vertex="1"><mxGeometry x="1240" y="80.00000000000023" width="140" height="52" as="geometry"/></mxCell><mxCell id="qBlVCoQa4VQj7nnMZvMF-19" value="- sentDate: Date" style="text;strokeColor=none;fillColor=none;align=left;verticalAlign=top;spacingLeft=4;spacingRight=4;overflow=hidden;rotatable=0;points=[[0,0.5],[1,0.5]];portConstraint=eastwest;fontColor=#393C56;" parent="qBlVCoQa4VQj7nnMZvMF-17" vertex="1"><mxGeometry y="26" width="140" height="26" as="geometry"/></mxCell><mxCell id="qBlVCoQa4VQj7nnMZvMF-21" value="recivedEmail" style="swimlane;fontStyle=0;childLayout=stackLayout;horizontal=1;startSize=26;fillColor=none;horizontalStack=0;resizeParent=1;resizeParentMax=0;resizeLast=0;collapsible=1;marginBottom=0;strokeColor=#E07A5F;fontColor=#393C56;" parent="WIyWlLk6GJQsqaUBKTNV-1" vertex="1"><mxGeometry x="1250" y="220.00000000000023" width="140" height="52" as="geometry"/></mxCell><mxCell id="qBlVCoQa4VQj7nnMZvMF-23" value="- recivedDate: Date" style="text;strokeColor=none;fillColor=none;align=left;verticalAlign=top;spacingLeft=4;spacingRight=4;overflow=hidden;rotatable=0;points=[[0,0.5],[1,0.5]];portConstraint=eastwest;fontColor=#393C56;" parent="qBlVCoQa4VQj7nnMZvMF-21" vertex="1"><mxGeometry y="26" width="140" height="26" as="geometry"/></mxCell><mxCell id="qBlVCoQa4VQj7nnMZvMF-25" value="savedEmail" style="swimlane;fontStyle=0;childLayout=stackLayout;horizontal=1;startSize=26;fillColor=none;horizontalStack=0;resizeParent=1;resizeParentMax=0;resizeLast=0;collapsible=1;marginBottom=0;strokeColor=#E07A5F;fontColor=#393C56;" parent="WIyWlLk6GJQsqaUBKTNV-1" vertex="1"><mxGeometry x="1280" y="331.0000000000002" width="140" height="78" as="geometry"><mxRectangle x="1240" y="340.0000000000002" width="90" height="26" as="alternateBounds"/></mxGeometry></mxCell><mxCell id="qBlVCoQa4VQj7nnMZvMF-27" value="- savedDate: Date" style="text;strokeColor=none;fillColor=none;align=left;verticalAlign=top;spacingLeft=4;spacingRight=4;overflow=hidden;rotatable=0;points=[[0,0.5],[1,0.5]];portConstraint=eastwest;fontColor=#393C56;" parent="qBlVCoQa4VQj7nnMZvMF-25" vertex="1"><mxGeometry y="26" width="140" height="26" as="geometry"/></mxCell><mxCell id="qBlVCoQa4VQj7nnMZvMF-28" value="- lastModified: Date" style="text;strokeColor=none;fillColor=none;align=left;verticalAlign=top;spacingLeft=4;spacingRight=4;overflow=hidden;rotatable=0;points=[[0,0.5],[1,0.5]];portConstraint=eastwest;fontColor=#393C56;" parent="qBlVCoQa4VQj7nnMZvMF-25" vertex="1"><mxGeometry y="52" width="140" height="26" as="geometry"/></mxCell><mxCell id="qBlVCoQa4VQj7nnMZvMF-29" value="" style="endArrow=block;endSize=16;endFill=0;html=1;rounded=0;startArrow=none;startFill=0;targetPerimeterSpacing=16;sourcePerimeterSpacing=5;exitX=1.028;exitY=0.256;exitDx=0;exitDy=0;exitPerimeter=0;entryX=0;entryY=0.5;entryDx=0;entryDy=0;labelBackgroundColor=#F4F1DE;strokeColor=#E07A5F;fontColor=#393C56;" parent="WIyWlLk6GJQsqaUBKTNV-1" source="qBlVCoQa4VQj7nnMZvMF-17" target="qBlVCoQa4VQj7nnMZvMF-11" edge="1"><mxGeometry width="160" relative="1" as="geometry"><mxPoint x="1410" y="248.40999999999997" as="sourcePoint"/><mxPoint x="1570" y="248.40999999999997" as="targetPoint"/></mxGeometry></mxCell><mxCell id="qBlVCoQa4VQj7nnMZvMF-30" value="" style="endArrow=block;endSize=16;endFill=0;html=1;rounded=0;sourcePerimeterSpacing=5;targetPerimeterSpacing=16;exitX=1;exitY=0.25;exitDx=0;exitDy=0;entryX=0;entryY=0.5;entryDx=0;entryDy=0;labelBackgroundColor=#F4F1DE;strokeColor=#E07A5F;fontColor=#393C56;" parent="WIyWlLk6GJQsqaUBKTNV-1" source="qBlVCoQa4VQj7nnMZvMF-21" target="qBlVCoQa4VQj7nnMZvMF-13" edge="1"><mxGeometry width="160" relative="1" as="geometry"><mxPoint x="1390" y="248.70999999999998" as="sourcePoint"/><mxPoint x="1550" y="248.70999999999998" as="targetPoint"/></mxGeometry></mxCell><mxCell id="qBlVCoQa4VQj7nnMZvMF-31" value="" style="endArrow=block;endSize=16;endFill=0;html=1;rounded=0;sourcePerimeterSpacing=5;targetPerimeterSpacing=16;exitX=1;exitY=0.25;exitDx=0;exitDy=0;entryX=0;entryY=0.5;entryDx=0;entryDy=0;labelBackgroundColor=#F4F1DE;strokeColor=#E07A5F;fontColor=#393C56;" parent="WIyWlLk6GJQsqaUBKTNV-1" source="qBlVCoQa4VQj7nnMZvMF-25" target="qBlVCoQa4VQj7nnMZvMF-15" edge="1"><mxGeometry width="160" relative="1" as="geometry"><mxPoint x="1400" y="373.00000000000034" as="sourcePoint"/><mxPoint x="1620" y="386.4999999999999" as="targetPoint"/></mxGeometry></mxCell><mxCell id="qBlVCoQa4VQj7nnMZvMF-41" value="" style="endArrow=none;html=1;edgeStyle=orthogonalEdgeStyle;rounded=0;exitX=1.008;exitY=1.06;exitDx=0;exitDy=0;entryX=0;entryY=0.25;entryDx=0;entryDy=0;sourcePerimeterSpacing=5;targetPerimeterSpacing=16;exitPerimeter=0;labelBackgroundColor=#F4F1DE;strokeColor=#E07A5F;fontColor=#393C56;" parent="WIyWlLk6GJQsqaUBKTNV-1" source="pBIvRkX0d40L7lg2x5wS-33" target="qBlVCoQa4VQj7nnMZvMF-21" edge="1"><mxGeometry relative="1" as="geometry"><mxPoint x="980" y="278.76" as="sourcePoint"/><mxPoint x="1180" y="278.76" as="targetPoint"/></mxGeometry></mxCell><mxCell id="qBlVCoQa4VQj7nnMZvMF-42" value="1" style="edgeLabel;resizable=0;html=1;align=left;verticalAlign=bottom;labelBackgroundColor=#F4F1DE;fontColor=#393C56;" parent="qBlVCoQa4VQj7nnMZvMF-41" connectable="0" vertex="1"><mxGeometry x="-1" relative="1" as="geometry"><mxPoint x="10" as="offset"/></mxGeometry></mxCell><mxCell id="qBlVCoQa4VQj7nnMZvMF-43" value="0..*" style="edgeLabel;resizable=0;html=1;align=right;verticalAlign=bottom;labelBackgroundColor=#F4F1DE;fontColor=#393C56;" parent="qBlVCoQa4VQj7nnMZvMF-41" connectable="0" vertex="1"><mxGeometry x="1" relative="1" as="geometry"><mxPoint x="-10" as="offset"/></mxGeometry></mxCell><mxCell id="qBlVCoQa4VQj7nnMZvMF-44" value="" style="endArrow=none;html=1;edgeStyle=orthogonalEdgeStyle;rounded=0;exitX=1;exitY=0.5;exitDx=0;exitDy=0;entryX=0;entryY=0.25;entryDx=0;entryDy=0;sourcePerimeterSpacing=5;targetPerimeterSpacing=16;labelBackgroundColor=#F4F1DE;strokeColor=#E07A5F;fontColor=#393C56;" parent="WIyWlLk6GJQsqaUBKTNV-1" source="pBIvRkX0d40L7lg2x5wS-67" target="qBlVCoQa4VQj7nnMZvMF-25" edge="1"><mxGeometry relative="1" as="geometry"><mxPoint x="980" y="340" as="sourcePoint"/><mxPoint x="1180" y="340" as="targetPoint"/></mxGeometry></mxCell><mxCell id="qBlVCoQa4VQj7nnMZvMF-45" value="1" style="edgeLabel;resizable=0;html=1;align=left;verticalAlign=bottom;labelBackgroundColor=#F4F1DE;fontColor=#393C56;" parent="qBlVCoQa4VQj7nnMZvMF-44" connectable="0" vertex="1"><mxGeometry x="-1" relative="1" as="geometry"><mxPoint x="10" as="offset"/></mxGeometry></mxCell><mxCell id="qBlVCoQa4VQj7nnMZvMF-46" value="0..*" style="edgeLabel;resizable=0;html=1;align=right;verticalAlign=bottom;labelBackgroundColor=#F4F1DE;fontColor=#393C56;" parent="qBlVCoQa4VQj7nnMZvMF-44" connectable="0" vertex="1"><mxGeometry x="1" relative="1" as="geometry"><mxPoint x="-10" as="offset"/></mxGeometry></mxCell><mxCell id="qBlVCoQa4VQj7nnMZvMF-48" value="" style="endArrow=none;html=1;edgeStyle=orthogonalEdgeStyle;rounded=0;exitX=1.004;exitY=0.055;exitDx=0;exitDy=0;entryX=0;entryY=0.192;entryDx=0;entryDy=0;sourcePerimeterSpacing=5;targetPerimeterSpacing=16;exitPerimeter=0;entryPerimeter=0;labelBackgroundColor=#F4F1DE;strokeColor=#E07A5F;fontColor=#393C56;" parent="WIyWlLk6GJQsqaUBKTNV-1" source="pBIvRkX0d40L7lg2x5wS-31" target="qBlVCoQa4VQj7nnMZvMF-17" edge="1"><mxGeometry relative="1" as="geometry"><mxPoint x="990" y="210" as="sourcePoint"/><mxPoint x="1190" y="210" as="targetPoint"/></mxGeometry></mxCell><mxCell id="qBlVCoQa4VQj7nnMZvMF-49" value="1" style="edgeLabel;resizable=0;html=1;align=left;verticalAlign=bottom;labelBackgroundColor=#F4F1DE;fontColor=#393C56;" parent="qBlVCoQa4VQj7nnMZvMF-48" connectable="0" vertex="1"><mxGeometry x="-1" relative="1" as="geometry"><mxPoint x="10" as="offset"/></mxGeometry></mxCell><mxCell id="qBlVCoQa4VQj7nnMZvMF-50" value="0..*" style="edgeLabel;resizable=0;html=1;align=right;verticalAlign=bottom;labelBackgroundColor=#F4F1DE;fontColor=#393C56;" parent="qBlVCoQa4VQj7nnMZvMF-48" connectable="0" vertex="1"><mxGeometry x="1" relative="1" as="geometry"><mxPoint x="-10" as="offset"/></mxGeometry></mxCell><mxCell id="qBlVCoQa4VQj7nnMZvMF-51" value="«interface»&lt;br&gt;&lt;b&gt;IAccount&lt;/b&gt;" style="html=1;fillColor=#F2CC8F;strokeColor=#E07A5F;fontColor=#393C56;" parent="WIyWlLk6GJQsqaUBKTNV-1" vertex="1"><mxGeometry x="630" y="40" width="110" height="50" as="geometry"/></mxCell><mxCell id="qBlVCoQa4VQj7nnMZvMF-52" value="" style="endArrow=block;endSize=16;endFill=0;html=1;rounded=0;sourcePerimeterSpacing=5;targetPerimeterSpacing=16;entryX=0.25;entryY=1;entryDx=0;entryDy=0;exitX=0.5;exitY=0;exitDx=0;exitDy=0;dashed=1;labelBackgroundColor=#F4F1DE;strokeColor=#E07A5F;fontColor=#393C56;" parent="WIyWlLk6GJQsqaUBKTNV-1" source="pBIvRkX0d40L7lg2x5wS-10" target="qBlVCoQa4VQj7nnMZvMF-51" edge="1"><mxGeometry width="160" relative="1" as="geometry"><mxPoint x="470" y="180" as="sourcePoint"/><mxPoint x="630" y="180" as="targetPoint"/></mxGeometry></mxCell><mxCell id="qBlVCoQa4VQj7nnMZvMF-53" value="" style="endArrow=block;endSize=16;endFill=0;html=1;rounded=0;sourcePerimeterSpacing=5;targetPerimeterSpacing=16;entryX=0.75;entryY=1;entryDx=0;entryDy=0;exitX=0.25;exitY=0;exitDx=0;exitDy=0;dashed=1;labelBackgroundColor=#F4F1DE;strokeColor=#E07A5F;fontColor=#393C56;" parent="WIyWlLk6GJQsqaUBKTNV-1" source="pBIvRkX0d40L7lg2x5wS-31" target="qBlVCoQa4VQj7nnMZvMF-51" edge="1"><mxGeometry width="160" relative="1" as="geometry"><mxPoint x="600" y="260" as="sourcePoint"/><mxPoint x="717.5" y="120" as="targetPoint"/></mxGeometry></mxCell></root></mxGraphModel></diagram></mxfile>